<svg width="16" height="16" viewBox="0 0 16 16" fill="none" xmlns="http://www.w3.org/2000/svg">
<g clip-path="url(#clip0_161_4150)">
<path d="M12.125 16H3.89167C2.49167 16 1.225 15.2 0.525 13.9C-0.175 12.6333 -0.175 11.0333 0.525 9.76667L4.65833 2.06667C5.725 0.0666735 8.125 -0.599993 9.95833 0.566674C10.525 0.93334 11.025 1.46667 11.3583 2.06667L15.4917 9.73334C16.1917 11 16.1917 12.6 15.4917 13.8667C14.7917 15.2 13.4917 16 12.125 16ZM7.99167 1.33334C7.05833 1.33334 6.19167 1.86667 5.725 2.73334L1.59167 10.4C1.125 11.2667 1.125 12.3333 1.59167 13.2C2.05833 14.1 2.925 14.6333 3.89167 14.6333H12.125C13.0583 14.6333 13.9583 14.1 14.425 13.2C14.8917 12.3333 14.8917 11.2667 14.425 10.4L10.2917 2.73334C9.825 1.86667 8.925 1.33334 7.99167 1.33334Z" fill="#FF5C5C"/>
<path d="M9.22523 4.66667C8.6919 3.93333 7.6919 3.8 7.02523 4.4C6.92523 4.46667 6.85856 4.56667 6.7919 4.66667C6.4919 5.06667 6.3919 5.63333 6.52523 6.13333L7.42523 10.1667C7.4919 10.5333 7.85856 10.7333 8.15857 10.6667C8.3919 10.6 8.55857 10.4333 8.5919 10.1667L9.52523 6.13333C9.62523 5.63333 9.52523 5.06667 9.22523 4.66667Z" fill="#FF5C5C"/>
<path d="M7.99144 13.3333C8.5069 13.3333 8.92477 12.8856 8.92477 12.3333C8.92477 11.7811 8.5069 11.3333 7.99144 11.3333C7.47597 11.3333 7.05811 11.7811 7.05811 12.3333C7.05811 12.8856 7.47597 13.3333 7.99144 13.3333Z" fill="#FF5C5C"/>
</g>
<defs>
<clipPath id="clip0_161_4150">
<rect width="16" height="16" fill="white"/>
</clipPath>
</defs>
</svg>
