<svg width="14" height="14" viewBox="0 0 14 14" fill="none" xmlns="http://www.w3.org/2000/svg">
<g clip-path="url(#clip0_162_8046)">
<path d="M7.0875 13.9999C10.3542 13.9999 13.1833 11.8415 13.9708 8.7207C14.0292 8.48737 13.9417 8.25404 13.7375 8.13737C13.5625 7.99154 13.3 7.99154 13.0958 8.13737C12.3667 8.6332 11.4917 8.86654 10.5875 8.86654C8.10833 8.86654 6.06667 6.85404 6.06667 4.40404C6.06667 3.06237 6.65 1.83737 7.7 0.96237C7.875 0.816536 7.93333 0.583203 7.875 0.34987C7.7875 0.145703 7.6125 -0.0292969 7.37917 -0.0292969C7.2625 -0.0292969 7.175 -0.0292969 7.05833 -0.0292969C3.17917 -0.000130206 0 3.14987 0 6.99987C0 10.8499 3.17917 13.9999 7.0875 13.9999Z" fill="#F8E53C"/>
</g>
<defs>
<clipPath id="clip0_162_8046">
<rect width="14" height="14" fill="white"/>
</clipPath>
</defs>
</svg>
