<svg width="14" height="14" viewBox="0 0 14 14" fill="none" xmlns="http://www.w3.org/2000/svg">
<path d="M2.33325 7.00016C2.33325 9.56683 4.43325 11.6668 6.99992 11.6668C9.56658 11.6668 11.6666 9.56683 11.6666 7.00016C11.6666 4.4335 9.56658 2.3335 6.99992 2.3335C4.43325 2.3335 2.33325 4.4335 2.33325 7.00016Z" fill="#FF9D43"/>
<path d="M7.49582 1.3125V0.495833C7.49582 0.233333 7.26248 0 6.99998 0C6.73748 0 6.50415 0.233333 6.50415 0.495833V1.3125C6.50415 1.575 6.73748 1.80833 6.99998 1.80833C7.26248 1.80833 7.49582 1.575 7.49582 1.3125Z" fill="#FF9D43"/>
<path d="M11.2584 2.04189L10.6751 2.62523C10.4709 2.82939 10.4709 3.12106 10.6751 3.32523C10.7626 3.41273 10.9084 3.47106 11.0251 3.47106C11.1418 3.47106 11.2876 3.41273 11.3751 3.32523L11.9584 2.74189C12.1626 2.53773 12.1626 2.24606 11.9584 2.04189C11.7543 1.86689 11.4334 1.86689 11.2584 2.04189Z" fill="#FF9D43"/>
<path d="M13.5042 6.50439H12.6875C12.425 6.50439 12.1917 6.73773 12.1917 7.00023C12.1917 7.26273 12.425 7.49606 12.6875 7.49606H13.5042C13.7667 7.49606 14 7.26273 14 7.00023C14 6.73773 13.7667 6.50439 13.5042 6.50439Z" fill="#FF9D43"/>
<path d="M10.6751 10.6752C10.4709 10.8794 10.4709 11.171 10.6751 11.3752L11.2584 11.9585C11.3459 12.046 11.4918 12.1044 11.6084 12.1044C11.7251 12.1044 11.8709 12.046 11.9584 11.9585C12.1626 11.7544 12.1626 11.4627 11.9584 11.2585L11.3751 10.6752C11.1709 10.5002 10.8793 10.5002 10.6751 10.6752Z" fill="#FF9D43"/>
<path d="M7.49582 13.5044V12.6877C7.49582 12.4252 7.26248 12.1919 6.99998 12.1919C6.73748 12.1919 6.50415 12.4252 6.50415 12.6877V13.5044C6.50415 13.7669 6.73748 14.0002 6.99998 14.0002C7.26248 14.0002 7.49582 13.7669 7.49582 13.5044Z" fill="#FF9D43"/>
<path d="M2.04165 11.9585C2.12915 12.046 2.27498 12.1044 2.39165 12.1044C2.50832 12.1044 2.65415 12.046 2.74165 11.9585L3.32498 11.3752C3.52915 11.171 3.52915 10.8794 3.32498 10.6752C3.12082 10.5002 2.82915 10.5002 2.62498 10.6752L2.04165 11.2585C1.86665 11.4335 1.86665 11.7544 2.04165 11.9585Z" fill="#FF9D43"/>
<path d="M0.495833 7.49606H1.3125C1.575 7.49606 1.80833 7.26273 1.80833 7.00023C1.80833 6.73773 1.575 6.50439 1.3125 6.50439H0.495833C0.233333 6.50439 0 6.73773 0 7.00023C0 7.26273 0.233333 7.49606 0.495833 7.49606Z" fill="#FF9D43"/>
<path d="M2.74157 2.04189C2.5374 1.86689 2.24573 1.86689 2.04157 2.04189C1.8374 2.21689 1.86657 2.56689 2.04157 2.74189L2.6249 3.32523C2.7124 3.41273 2.85823 3.47106 2.9749 3.47106C3.09157 3.47106 3.2374 3.41273 3.3249 3.32523C3.52907 3.12106 3.52907 2.82939 3.3249 2.62523L2.74157 2.04189Z" fill="#FF9D43"/>
</svg>
